# xmcd
#
# Track frame offsets: 
#        150
#        13042
#        25257
#        38152
#        53452
#        66185
#        77130
#        92447
#        107442
#        122677
#        139515
#        155760
#
# Disc length: 2296 seconds
#
# Revision: 9
# Processed by: cddbd v1.5.2PL0 Copyright (c) Steve Scherf et al.
# Submitted via: ExactAudioCopyFreeDBPlugin 1.0
#
DISCID=8c08f60c
DTITLE=Ray Charles - The Genius of Ray Charles
DYEAR=1959
DGENRE=Swingin' Pop
TTITLE0=Let the Good Times Roll
TTITLE1=It Had to Be You
TTITLE2=Alexander's Ragtime Band
TTITLE3=Two Years of Torture
TTITLE4=When Your Lover Has Gone
TTITLE5=Deed I Do
TTITLE6=Just for a Thrill
TTITLE7=You Won't Let Me Go
TTITLE8=Tell Me You'll Wait for Me
TTITLE9=Don't Let the Sun Catch You Cryin'
TTITLE10=Am I Blue?
TTITLE11=Come Rain or Come Shine
EXTD=1959 Atlantic Recording 1312-2\n\nRay Charles: piano, vocals (all
EXTD=tracks]\nClark Terry, Ernie Royal, Joe Newman, Snookie Young,\n 
EXTD=Marcus Belgrave, John Hunt: trumpet (tracks 1-6]\nMelba Liston, 
EXTD=Quentin Jackson, Thomas Mitchell,\n   Al Gray: trombone (tracks 1
EXTD=6]\nFrank Wess: flute, alto or tenor sax (tracks 1-6]\nMarshall 
EXTD=Royal: alto sax (tracks 1-6]\nPaul Gonsalves, David "Fathead" New
EXTD=man: tenor sax (tracks 1-6]\nZoot Sims: tenor sax (tracks 1, 3, 6
EXTD=]\nCharlie Fowlkes, Bennie Crawford: baritone sax (tracks 1-6]\nF
EXTD=reddie Green: gutiar (tracks 1-6]\nEddie Jones, Edgar Willis: bas
EXTD=s (tracks 1, 3, 6]\nCharlie Persip, Teagle Fleming: drums (tracks
EXTD=1-6]\nJose Mangual: bongo drums (track 3]\nBilly Mitchell: tenor
EXTD=sax (tracks 2, 4, 5]\nAllen Hanlon: guitar (tracks 7-12]\nWendel
EXTD=l Marshall: bass (tracks 7-12]\nTed Sommer: drums (tracks 7-12]\n
EXTD=Bob Brookmeyer: trombone (tracks 7-12]\nwoodwinds/strings concert
EXTD=master Harry Lookofsky (tracks 7-12]\n\n\nEntry: Mike Lempriere  
EXTD=mikel@speakeasy.org  21-Feb-1997 YEAR: 1959
EXTT0=
EXTT1=
EXTT2=
EXTT3=
EXTT4=
EXTT5=
EXTT6=
EXTT7=
EXTT8=
EXTT9=
EXTT10=
EXTT11=
PLAYORDER=
